name C:\Users\u0150099\Documents\master_thesis\3dpredictsim\Results\debug\Fal_s1_mtjc2_sc_cspx10_oy2_TrackAnkleQSubtQ_MTc2_MTPm_k1_d01_MTJm_nl_MG_exp5_table_d01_PF_Natali2010_x3_ls146_ig21.mot
datacolumns 128
datarows 4
range 1.11475017 1.14819268
endheader
time	pelvis_tilt	pelvis_list	pelvis_rotation	pelvis_tx	pelvis_ty	pelvis_tz	hip_flexion_l	hip_adduction_l	hip_rotation_l	hip_flexion_r	hip_adduction_r	hip_rotation_r	knee_angle_l	knee_angle_r	ankle_angle_l	ankle_angle_r	subtalar_angle_l	subtalar_angle_r	mtj_angle_l	mtj_angle_r	mtp_angle_l	mtp_angle_r	lumbar_extension	lumbar_bending	lumbar_rotation	arm_flex_l	arm_add_l	arm_rot_l	arm_flex_r	arm_add_r	arm_rot_r	elbow_flex_l	elbow_flex_r	pro_sup_l	pro_sup_r	glut_med1_l/activation	glut_med2_l/activation	glut_med3_l/activation	glut_min1_l/activation	glut_min2_l/activation	glut_min3_l/activation	semimem_l/activation	semiten_l/activation	bifemlh_l/activation	bifemsh_l/activation	sar_l/activation	add_long_l/activation	add_brev_l/activation	add_mag1_l/activation	add_mag2_l/activation	add_mag3_l/activation	tfl_l/activation	pect_l/activation	grac_l/activation	glut_max1_l/activation	glut_max2_l/activation	glut_max3_l/activation	iliacus_l/activation	psoas_l/activation	quad_fem_l/activation	gem_l/activation	peri_l/activation	rect_fem_l/activation	vas_med_l/activation	vas_int_l/activation	vas_lat_l/activation	med_gas_l/activation	lat_gas_l/activation	soleus_l/activation	tib_post_l/activation	flex_dig_l/activation	flex_hal_l/activation	tib_ant_l/activation	per_brev_l/activation	per_long_l/activation	per_tert_l/activation	ext_dig_l/activation	ext_hal_l/activation	ercspn_l/activation	intobl_l/activation	extobl_l/activation	glut_med1_r/activation	glut_med2_r/activation	glut_med3_r/activation	glut_min1_r/activation	glut_min2_r/activation	glut_min3_r/activation	semimem_r/activation	semiten_r/activation	bifemlh_r/activation	bifemsh_r/activation	sar_r/activation	add_long_r/activation	add_brev_r/activation	add_mag1_r/activation	add_mag2_r/activation	add_mag3_r/activation	tfl_r/activation	pect_r/activation	grac_r/activation	glut_max1_r/activation	glut_max2_r/activation	glut_max3_r/activation	iliacus_r/activation	psoas_r/activation	quad_fem_r/activation	gem_r/activation	peri_r/activation	rect_fem_r/activation	vas_med_r/activation	vas_int_r/activation	vas_lat_r/activation	med_gas_r/activation	lat_gas_r/activation	soleus_r/activation	tib_post_r/activation	flex_dig_r/activation	flex_hal_r/activation	tib_ant_r/activation	per_brev_r/activation	per_long_r/activation	per_tert_r/activation	ext_dig_r/activation	ext_hal_r/activation	ercspn_r/activation	intobl_r/activation	extobl_r/activation	
          1.11475017	         -2.92190384	         -0.99335566	          4.51832037	          1.48261773	          0.90430774	         -0.00450457	        -20.02166763	          1.06993264	          8.67524137	         28.19788870	          1.90908178	         -2.19890814	         -5.62117513	         -6.56412534	          5.26018327	          1.67907238	          5.26521593	         -0.04770629	         -0.78248421	          1.29854804	         15.18313620	         -2.40340641	         -3.17648118	         -0.24163686	         -1.91037246	          3.58348982	        -14.16686753	         19.38713145	         -7.28645122	        -13.47203691	          4.17002867	         36.87978709	         27.35039556	         86.51662706	         86.51662706	          0.35268404	          0.09895945	          0.06321009	          0.47897130	          0.27500528	          0.12443844	          0.05000204	          0.05000027	          0.05000021	          0.08351313	          0.12147039	          0.05000008	          0.05000009	          0.05000016	          0.05000056	          0.05000041	          0.73407329	          0.05000046	          0.05000048	          0.05000977	          0.05000233	          0.05000093	          0.41911378	          0.79094074	          0.05000015	          0.05000085	          0.05928884	          0.28109397	          0.05000026	          0.05000025	          0.05000025	          0.41533202	          0.51216831	          0.32152620	          0.44395844	          0.43414931	          0.51167131	          0.05000003	          0.07311076	          0.25436467	          0.05000011	          0.05349963	          0.12356695	          0.05000002	          0.05000001	          0.05000005	          0.05000163	          0.05000050	          0.05928950	          0.05000021	          0.05000031	          0.05000115	          0.33736888	          0.07030495	          0.07030538	          0.05000041	          0.05000111	          0.12910307	          0.14864537	          0.16130026	          0.16361480	          0.13235976	          0.05000308	          0.05003720	          0.10187441	          0.05931083	          0.09515056	          0.10352839	          0.05000016	          0.05000023	          0.17396855	          0.05000075	          0.05000032	          0.05000034	          0.05928927	          0.05928932	          0.05928890	          0.07598151	          0.05000031	          0.05000012	          0.05000059	          0.09024047	          0.07579376	          0.23682034	          0.05928960	          0.08724817	          0.21197329	          0.61160227	          0.22944584	          0.05928960	          0.11204035	          0.11722407	
          1.12589768	         -2.92800944	         -1.15436943	          4.78011575	          1.50026665	          0.90386715	         -0.00422002	        -19.98025479	          0.71287765	          8.57068334	         27.67162509	          2.35586721	         -2.09635005	         -7.43779677	         -6.44719661	          4.52388784	          1.30273088	          5.59897444	         -0.23533151	         -2.15587839	          1.65042482	         18.49802809	         -3.37032047	         -3.01640108	          0.02487480	         -2.01880228	          3.17371728	        -14.11722804	         19.34062190	         -8.06900163	        -13.45186024	          3.87023732	         38.16259128	         26.92852128	         86.51662706	         86.51662706	          0.29742504	          0.08345435	          0.05330626	          0.40392544	          0.23191708	          0.10494127	          0.05000357	          0.05000034	          0.05000018	          0.07042819	          0.10243833	          0.07793635	          0.05000153	          0.05000098	          0.05000252	          0.05000194	          0.69934470	          0.05924855	          0.05000059	          0.05000108	          0.05000080	          0.05000098	          0.35344643	          0.69600437	          0.05000008	          0.05000032	          0.05000016	          0.30331516	          0.05858373	          0.06127436	          0.05109857	          0.35025715	          0.43192102	          0.27114898	          0.40473955	          0.48176104	          0.46417376	          0.05000001	          0.09736129	          0.24673517	          0.05000011	          0.05000003	          0.10420630	          0.05000001	          0.05264931	          0.06811607	          0.05928955	          0.05928959	          0.05000022	          0.05928967	          0.05928964	          0.05928856	          0.30302590	          0.05928967	          0.05928989	          0.05928954	          0.05000052	          0.12537219	          0.16047748	          0.13602836	          0.19127018	          0.14376900	          0.05000016	          0.05004742	          0.08591382	          0.05001823	          0.08024328	          0.15699817	          0.05000119	          0.05000048	          0.33841151	          0.19417528	          0.09784216	          0.05000009	          0.05000030	          0.05000030	          0.05000025	          0.07605874	          0.05000145	          0.05000003	          0.05928949	          0.07610162	          0.06391927	          0.24204736	          0.05000018	          0.11747339	          0.28189181	          0.64892141	          0.29230514	          0.05000005	          0.09448570	          0.09885723	
          1.13704518	         -2.93008766	         -1.33004927	          5.01814150	          1.51822904	          0.90355109	         -0.00390798	        -19.84573572	          0.33988843	          8.43262547	         27.15970972	          2.77134716	         -1.97706574	         -9.35475609	         -7.04959427	          3.50228356	          0.49454187	          5.90868975	         -0.45991970	         -3.65770834	          1.99120946	         22.14245254	         -4.17898880	         -2.84147093	          0.31058850	         -2.11921574	          2.67217794	        -14.06084401	         19.20226638	         -8.85483828	        -13.45369344	          3.78538611	         39.47120234	         26.47650657	         86.51662706	         86.51662706	          0.25082407	          0.07037861	          0.05928956	          0.34063785	          0.19557999	          0.08849894	          0.05000270	          0.05000080	          0.05903812	          0.05939342	          0.08638823	          0.15851189	          0.20273597	          0.05929100	          0.05929015	          0.05929047	          0.62934585	          0.05000237	          0.05001737	          0.05928836	          0.05928935	          0.05928956	          0.29806793	          0.63292016	          0.05928959	          0.05928960	          0.05000096	          0.25579140	          0.10009038	          0.10297920	          0.08794757	          0.29537832	          0.36424698	          0.22866494	          0.34132440	          0.42713478	          0.39144669	          0.05000000	          0.08210680	          0.23542555	          0.05000004	          0.05000002	          0.08787911	          0.05416696	          0.06429265	          0.07030514	          0.05000002	          0.05000008	          0.11964258	          0.05000011	          0.05000011	          0.05000011	          0.25554739	          0.05000012	          0.05000028	          0.05000003	          0.05000053	          0.10572914	          0.26007315	          0.26570687	          0.18666644	          0.18145036	          0.05000193	          0.07031617	          0.07245291	          0.09052437	          0.14199062	          0.16480358	          0.05000016	          0.05000039	          0.46542711	          0.16375168	          0.08251219	          0.06457656	          0.17278567	          0.17179227	          0.13462696	          0.07030515	          0.07030519	          0.07030510	          0.05000002	          0.06531891	          0.05929334	          0.36683777	          0.11952766	          0.09906752	          0.58804372	          0.68844116	          0.57803962	          0.05000000	          0.07968154	          0.08336814	
          1.14819268	         -2.92955557	         -1.54510778	          5.23243876	          1.53637256	          0.90339849	         -0.00360654	        -19.58499056	         -0.05778254	          8.25708995	         26.59413413	          3.12147466	         -1.79362198	        -11.39315330	         -7.94315093	          2.11148090	         -0.52259395	          6.13392335	         -0.68312847	         -5.22695770	          2.33082880	         26.09002492	         -4.69152967	         -2.65916039	          0.64288831	         -2.20886440	          2.10622044	        -13.98989771	         19.00942311	         -9.61235784	        -13.48204586	          3.89264577	         40.78394944	         25.96365788	         86.51662706	         86.51662706	          0.21153642	          0.05935160	          0.05000002	          0.37415061	          0.16493628	          0.07463282	          0.05000349	          0.05000019	          0.05000008	          0.05928936	          0.07285297	          0.13367747	          0.17097112	          0.05000131	          0.05000090	          0.05000091	          0.70768130	          0.07030459	          0.05000036	          0.05000062	          0.05000037	          0.05000031	          0.25515014	          0.62900321	          0.05000005	          0.05000018	          0.05000003	          0.21571364	          0.08440811	          0.08684430	          0.07416785	          0.24909798	          0.30717620	          0.19283736	          0.28784518	          0.36021083	          0.33011434	          0.05000025	          0.16783937	          0.20659384	          0.05000022	          0.05000016	          0.07411008	          0.09302029	          0.05421918	          0.05928963	          0.32733616	          0.35767941	          0.42009468	          0.36773826	          0.26899115	          0.23801114	          0.21550788	          0.15973440	          0.10949658	          0.10716965	          0.05929014	          0.08916338	          0.21932453	          0.22407558	          0.15741935	          0.18814429	          0.05000042	          0.05929937	          0.18750993	          0.26846603	          0.22022585	          0.13898215	          0.05928960	          0.05928945	          0.39250336	          0.13809508	          0.13215704	          0.05445861	          0.14571336	          0.14487561	          0.11353342	          0.05928963	          0.05928967	          0.05928959	          0.05836482	          0.05508466	          0.05000320	          0.38121885	          0.10079991	          0.08354592	          0.49590818	          0.82126848	          0.75793458	          0.06342586	          0.09083641	          0.07030589	
